<?xml version="1.0" standalone="no"?>
<!DOCTYPE svg PUBLIC "-//W3C//DTD SVG 20010904//EN"
 "http://www.w3.org/TR/2001/REC-SVG-20010904/DTD/svg10.dtd">
<svg version="1.0" xmlns="http://www.w3.org/2000/svg"
 width="1454.000000pt" height="510.000000pt" viewBox="0 0 1454.000000 510.000000"
 preserveAspectRatio="xMidYMid meet">
<metadata>
Created by potrace 1.16, written by Peter Selinger 2001-2019
</metadata>
<g transform="translate(0.000000,510.000000) scale(0.100000,-0.100000)"
fill="#000000" stroke="none">
<path d="M11740 4825 l0 -275 1325 0 1325 0 0 275 0 275 -1325 0 -1325 0 0
-275z"/>
<path d="M1320 4284 c-321 -41 -556 -151 -765 -359 -348 -346 -524 -875 -551
-1655 -20 -609 113 -1284 322 -1633 250 -416 632 -637 1099 -637 202 0 369 36
530 115 172 84 296 199 403 377 26 43 49 77 52 78 3 0 19 -107 34 -237 16
-131 31 -253 33 -271 l6 -32 173 0 174 0 0 1050 0 1050 -665 0 -665 0 0 -210
0 -210 420 0 420 0 0 -119 c0 -537 -172 -926 -479 -1080 -107 -54 -197 -73
-351 -74 -107 0 -151 5 -213 21 -397 108 -635 488 -723 1152 -25 189 -31 754
-10 970 82 861 389 1280 936 1280 135 0 236 -22 345 -75 158 -76 262 -193 350
-393 43 -97 135 -363 135 -389 0 -7 6 -13 13 -13 6 0 112 37 235 82 156 58
222 87 222 98 0 36 -113 347 -163 451 -80 164 -147 261 -256 369 -106 105
-186 157 -326 213 -151 60 -260 78 -495 82 -113 2 -221 1 -240 -1z"/>
<path d="M12851 4279 c-457 -59 -798 -311 -1006 -744 -131 -271 -214 -614
-246 -1017 -16 -205 -7 -753 15 -918 121 -897 465 -1398 1061 -1550 158 -40
293 -54 465 -47 353 16 619 121 832 329 299 295 474 743 534 1373 20 212 15
801 -9 985 -102 786 -367 1256 -830 1475 -107 51 -234 90 -362 110 -97 16
-346 18 -454 4z m430 -438 c399 -104 629 -524 701 -1276 18 -194 15 -695 -6
-890 -76 -715 -311 -1127 -697 -1224 -158 -40 -341 -36 -489 10 -302 95 -509
403 -609 904 -48 243 -64 430 -64 770 -1 396 22 621 89 894 125 506 334 760
682 826 103 20 292 13 393 -14z"/>
<path d="M4211 4143 c-11 -38 -268 -952 -571 -2033 -303 -1081 -555 -1977
-560 -1993 l-9 -27 258 0 257 0 58 228 c31 125 98 388 148 584 l91 358 613 0
613 0 9 -32 c5 -18 73 -282 153 -586 l144 -552 257 0 256 0 -18 68 c-14 50
-1012 3790 -1071 4015 l-10 37 -299 0 -299 0 -20 -67z m538 -1458 c133 -539
244 -988 247 -997 5 -17 -23 -18 -501 -18 -489 0 -507 1 -502 19 2 10 116 462
253 1004 137 542 252 983 255 979 3 -4 115 -448 248 -987z"/>
<path d="M6220 2150 l0 -2060 255 0 255 0 0 655 0 654 297 416 297 415 537
-1068 537 -1067 292 -3 c276 -2 292 -1 286 15 -4 10 -302 593 -663 1297 -361
703 -656 1284 -656 1290 0 7 241 348 536 759 296 410 537 749 537 752 0 3
-128 5 -285 5 l-285 0 -715 -1072 -715 -1073 0 1073 0 1072 -255 0 -255 0 0
-2060z"/>
<path d="M9020 2150 l0 -2060 255 0 255 0 0 655 0 654 297 416 297 415 537
-1068 537 -1067 292 -3 c276 -2 292 -1 286 15 -4 10 -302 593 -663 1297 -361
703 -656 1284 -656 1290 0 7 241 348 536 759 296 410 537 749 537 752 0 3
-128 5 -285 5 l-285 0 -715 -1072 -715 -1073 0 1073 0 1072 -255 0 -255 0 0
-2060z"/>
</g>
</svg>
