<?xml version="1.0" encoding="utf-8"?>
<!-- Generator: Adobe Illustrator 15.0.0, SVG Export Plug-In . SVG Version: 6.00 Build 0)  -->
<!DOCTYPE svg PUBLIC "-//W3C//DTD SVG 1.1//EN" "http://www.w3.org/Graphics/SVG/1.1/DTD/svg11.dtd">
<svg version="1.1" id="Layer_1" xmlns="http://www.w3.org/2000/svg" xmlns:xlink="http://www.w3.org/1999/xlink" x="0px" y="0px"
	 width="16px" height="16px" viewBox="0 0 16 16" enable-background="new 0 0 16 16" xml:space="preserve">
<g>
	<defs>
		<path id="SVGID_1_" d="M10.561,9.384l-0.534,0.748l0.7,0.595c0.002,0.002,0.002,0.002,0.004,0.004l3.531,3.531
			c0.003,0.003,0.003,0.001,0.002,0.002c-0.004,0.003,0.003,0.003-0.002-0.002L10.73,10.73c-0.001-0.001-0.002-0.002-0.002-0.002
			l-0.595-0.703l-0.75,0.535c-1.973,1.408-4.7,1.194-6.434-0.54c-1.953-1.952-1.953-5.118,0-7.071c1.953-1.952,5.119-1.952,7.071,0
			C11.755,4.684,11.969,7.411,10.561,9.384z M12.188,10.546c1.974-2.766,1.674-6.583-0.754-9.011c-2.733-2.733-7.166-2.733-9.899,0
			c-2.734,2.734-2.734,7.166,0,9.899c2.428,2.428,6.245,2.728,9.01,0.754l-0.581-0.814l-0.763,0.646
			c0.036,0.043,0.074,0.084,0.113,0.124l3.532,3.531c0.788,0.788,2.047,0.785,2.83,0.002c0.783-0.784,0.78-2.048-0.002-2.83
			l-3.531-3.532c-0.061-0.058-0.061-0.058-0.123-0.112l-0.647,0.762L12.188,10.546z M-31.698,6.485L6.485-31.698l42.427,42.426
			L10.728,48.912L-31.698,6.485z"/>
	</defs>
	<clipPath id="SVGID_2_">
		<use xlink:href="#SVGID_1_"  overflow="visible"/>
	</clipPath>
	<g clip-path="url(#SVGID_2_)">
		<defs>
			<path id="SVGID_3_" d="M11.374,9.965c1.673-2.344,1.457-5.619-0.646-7.723c-2.343-2.343-6.142-2.343-8.485,0
				c-2.343,2.344-2.343,6.143,0,8.485c2.103,2.104,5.379,2.319,7.722,0.646c0.019,0.021,0.038,0.043,0.058,0.063l3.532,3.531
				c0.399,0.399,1.025,0.393,1.416,0.002c0.394-0.394,0.39-1.024-0.002-1.416l-3.531-3.532C11.417,10.003,11.396,9.983,11.374,9.965
				z"/>
		</defs>
		<clipPath id="SVGID_4_">
			<use xlink:href="#SVGID_3_"  overflow="visible"/>
		</clipPath>
		<g clip-path="url(#SVGID_4_)">
			<defs>
				<rect id="SVGID_5_" x="-2" y="-3" width="22" height="23"/>
			</defs>
			<clipPath id="SVGID_6_">
				<use xlink:href="#SVGID_5_"  overflow="visible"/>
			</clipPath>
			<path clip-path="url(#SVGID_6_)" fill="#FFFFFF" d="M11.374,9.965c1.673-2.344,1.457-5.619-0.646-7.723
				c-2.343-2.343-6.142-2.343-8.485,0c-2.343,2.344-2.343,6.143,0,8.485c2.103,2.104,5.379,2.319,7.722,0.646
				c0.019,0.021,0.038,0.043,0.058,0.063l3.532,3.531c0.399,0.399,1.025,0.393,1.416,0.002c0.394-0.394,0.39-1.024-0.002-1.416
				l-3.531-3.532C11.417,10.003,11.396,9.983,11.374,9.965z"/>
		</g>
	</g>
</g>
<g>
	<defs>
		<path id="SVGID_7_" d="M11.374,9.965c1.673-2.344,1.457-5.619-0.646-7.723c-2.343-2.343-6.142-2.343-8.485,0
			c-2.343,2.344-2.343,6.143,0,8.485c2.103,2.104,5.379,2.319,7.722,0.646c0.019,0.021,0.038,0.043,0.058,0.063l3.532,3.531
			c0.399,0.399,1.025,0.393,1.416,0.002c0.394-0.394,0.39-1.024-0.002-1.416l-3.531-3.532C11.417,10.003,11.396,9.983,11.374,9.965z
			"/>
	</defs>
	<clipPath id="SVGID_8_">
		<use xlink:href="#SVGID_7_"  overflow="visible"/>
	</clipPath>
	<g clip-path="url(#SVGID_8_)">
		<defs>
			<rect id="SVGID_9_" x="-2" y="-3" width="22" height="23"/>
		</defs>
		<clipPath id="SVGID_10_">
			<use xlink:href="#SVGID_9_"  overflow="visible"/>
		</clipPath>
		<path clip-path="url(#SVGID_10_)" fill="none" stroke="#000000" stroke-width="4" stroke-miterlimit="10" d="M11.374,9.965
			c1.673-2.344,1.457-5.619-0.646-7.723c-2.343-2.343-6.142-2.343-8.485,0c-2.343,2.344-2.343,6.143,0,8.485
			c2.103,2.104,5.379,2.319,7.722,0.646c0.019,0.021,0.038,0.043,0.058,0.063l3.532,3.531c0.399,0.399,1.025,0.393,1.416,0.002
			c0.394-0.394,0.39-1.024-0.002-1.416l-3.531-3.532C11.417,10.003,11.396,9.983,11.374,9.965z"/>
	</g>
</g>
</svg>
